<?xml version="1.0" standalone="no"?><!DOCTYPE svg PUBLIC "-//W3C//DTD SVG 1.1//EN" "http://www.w3.org/Graphics/SVG/1.1/DTD/svg11.dtd"><svg t="1541764175918" class="icon" style="" viewBox="0 0 1024 1024" version="1.1" xmlns="http://www.w3.org/2000/svg" p-id="5640" xmlns:xlink="http://www.w3.org/1999/xlink" width="200" height="200"><defs><style type="text/css"></style></defs><path d="M872.3 354.5h72.1v360.3h-72.1V354.5z" fill="#29CCB6" p-id="5641"></path><path d="M908.3 690.8c33.2 0 60 26.9 60 60 0 33.2-26.9 60-60 60-33.2 0-60-26.9-60-60 0-33.2 26.9-60 60-60z" fill="#29CCB6" p-id="5642"></path><path d="M965.5 335.2l-432-214.7c-13.5-6.7-29.4-6.7-42.9 0l-432 214.7c-16.7 8.3-27 25.3-26.6 43.8 0.4 18.5 11.5 35 28.5 42.5L224 493.7v258.2c0 48.9 31.3 92.2 78 107.8l77.5 25.8c42.4 14.1 87 21.2 131.7 21.2 44.1 0 88.2-6.9 130.2-20.8l80.1-26.4c46.9-15.4 78.4-58.8 78.4-107.9v-258l163.5-72.2c17-7.5 28.1-24 28.5-42.5 0.5-18.4-9.8-35.4-26.4-43.7zM704 751.7c0 7.9-5.1 14.9-12.6 17.4l-80.1 26.4c-64.9 21.4-136.4 21.3-201.2-0.4l-77.5-25.8c-7.5-2.5-12.6-9.5-12.6-17.4V536.1l172.5 76.2c6.2 2.8 12.8 4.1 19.5 4.1 6.7 0 13.3-1.4 19.5-4.1L704 536.1v215.6zM512 516.5L192.4 375.3 512 216.5l319.6 158.8L512 516.5z" fill="#4585F5" p-id="5643"></path></svg>