<?xml version="1.0" standalone="no"?><!DOCTYPE svg PUBLIC "-//W3C//DTD SVG 1.1//EN" "http://www.w3.org/Graphics/SVG/1.1/DTD/svg11.dtd"><svg t="1541763788937" class="icon" style="" viewBox="0 0 1024 1024" version="1.1" xmlns="http://www.w3.org/2000/svg" p-id="1735" xmlns:xlink="http://www.w3.org/1999/xlink" width="200" height="200"><defs><style type="text/css"></style></defs><path d="M766.08 219.3h-39.79a9.09 9.09 0 1 0 0 18.18h39.79a10 10 0 0 1 10 10v120.26h-33a9.09 9.09 0 0 0 0 18.18h33v112.89h-33a9.09 9.09 0 0 0 0 18.18h33v115.63h-33a9.09 9.09 0 0 0 0 18.18h33v117.52a10 10 0 0 1-10 10h-39.79a9.09 9.09 0 1 0 0 18.18h39.79a28.22 28.22 0 0 0 28.19-28.2V247.5a28.22 28.22 0 0 0-28.19-28.2zM466.44 370.26A80.23 80.23 0 1 0 386.22 290a80.32 80.32 0 0 0 80.22 80.26z m0-142.28a62.05 62.05 0 1 1-62 62.06 62.12 62.12 0 0 1 62-62.04zM691.22 475.73l-109-80.31a65.77 65.77 0 0 0-38.73-12.73H389.37a64.77 64.77 0 0 0-38.72 12.73l-109 80.31a29.29 29.29 0 0 0-7 39.91l1.26 1.87a30.62 30.62 0 0 0 43.13 8l78.34-55.4a2.66 2.66 0 0 1 4.41 2v313.53a28.6 28.6 0 0 0 28.57 28.55h37A28.6 28.6 0 0 0 456 785.64V632a10.38 10.38 0 1 1 20.76 0v153.64a28.59 28.59 0 0 0 28.56 28.55h37a28.59 28.59 0 0 0 28.56-28.55l0.17-313.52a2.49 2.49 0 0 1 1.56-2.41c0.7-0.34 1.79-0.52 3.63 1.05l77.58 54.77a30.57 30.57 0 0 0 43.11-8l1.28-1.9a29.29 29.29 0 0 0-6.99-39.9z m-8.11 29.79l-1.28 1.9a12.31 12.31 0 0 1-8.06 5.33 12.44 12.44 0 0 1-9.45-2.06l-76.78-54.16a20.83 20.83 0 0 0-34.65 15.59l-0.17 313.52A10.38 10.38 0 0 1 542.34 796h-37a10.39 10.39 0 0 1-10.38-10.36V632a28.56 28.56 0 1 0-57.12 0v153.64A10.39 10.39 0 0 1 427.41 796h-37A10.39 10.39 0 0 1 380 785.64V472.12a20.59 20.59 0 0 0-12.28-19c-7.53-3.4-16.13-2.09-21.59 2.79l-77.54 54.78a12.53 12.53 0 0 1-9.47 2.06 12.31 12.31 0 0 1-8.07-5.36l-1.26-1.87a11.15 11.15 0 0 1 2.66-15.16l109-80.31a46.81 46.81 0 0 1 27.93-9.18h154.13a47.47 47.47 0 0 1 27.94 9.18l109 80.31a11.16 11.16 0 0 1 2.66 15.16z" fill="#00CA9D" p-id="1736"></path></svg>