<?xml version="1.0" standalone="no"?><!DOCTYPE svg PUBLIC "-//W3C//DTD SVG 1.1//EN" "http://www.w3.org/Graphics/SVG/1.1/DTD/svg11.dtd"><svg t="1541764091537" class="icon" style="" viewBox="0 0 1024 1024" version="1.1" xmlns="http://www.w3.org/2000/svg" p-id="4871" xmlns:xlink="http://www.w3.org/1999/xlink" width="200" height="200"><defs><style type="text/css"></style></defs><path d="M545.48 69.67l1.66 0.5zM430.85 86l1.42-0.93zM532.76 66.51l1.66 0.34zM416.91 96.46l1.45-1.23zM539.16 67.94l1.66 0.42zM542.33 68.77l1.67 0.46zM428 88l1.42-1zM486.95 65.17l1.68-0.22zM536 67.19l1.66 0.38zM548.63 70.65l1.66 0.55zM561 75.35l1.62 0.72zM436.66 82.46l1.45-0.84zM557.92 74.06l1.64 0.67zM439.63 80.78l1.45-0.79zM483.67 65.66l1.67-0.26zM554.85 72.85l1.64 0.63zM551.74 71.71l1.65 0.59zM433.74 84.21l1.44-0.88zM425.17 90l1.42-1zM493.53 64.42l1.7-0.14zM513.31 64.08l1.64 0.1zM467.48 69.29l1.59-0.45zM516.58 64.29l1.64 0.13zM500.14 64l1.71-0.06zM503.45 63.9h1.72zM506.79 63.88h1.63zM496.83 64.17l1.71-0.1zM419.65 94.18l1.4-1.13zM564 76.72l1.61 0.76zM526.31 65.4l1.65 0.25zM519.83 64.58l1.65 0.17zM529.54 65.92l1.66 0.29zM422.4 92l1.4-1.07zM523.07 65l1.65 0.21zM490.23 64.76l1.69-0.18zM510.05 63.94l1.64 0.06zM454.86 73.6l1.52-0.6zM595.41 97.06l1.16 1zM590 92.59l1.33 1zM592.69 94.77l1.26 1zM451.76 74.88l1.5-0.64zM473.92 67.6l1.62-0.38zM587.21 90.51l1.37 1zM470.69 68.4l1.61-0.4zM598.12 99.48l1 0.92zM584.42 88.5l1.42 1zM461.13 71.29l1.55-0.53zM927.87 441.48L592.09 112.59a123.75 123.75 0 0 0-174.31 1.74L97.17 441zM411.48 101.35c0.54-0.51 1.07-1 1.61-1.52-0.54 0.5-1.09 1.01-1.61 1.52zM458 72.41l1.54-0.56zM785.24 282.62L601.67 102.81l-0.22-0.21 0.22 0.21zM414.2 98.83zM445.64 77.67l1.48-0.72zM570 79.69l1.58 0.84zM572.93 81.29l1.55 0.87zM464.3 70.25l1.57-0.49zM567 78.17l1.59 0.8zM480.41 66.22l1.64-0.3zM442.62 79.18l1.47-0.75zM408.37 104.39c0.72-0.72 1.43-1.44 2.16-2.15-0.73 0.76-1.45 1.43-2.16 2.15zM578.73 84.73l1.51 0.95zM448.69 76.23l1.49-0.68zM477.16 66.87l1.63-0.34zM581.58 86.57l1.47 1zM575.85 83l1.52 0.91zM64.57 454.68l6.27-6.38-6.27 6.38 896.86 0.51-896.86-0.51z" fill="#FFCC66" p-id="4872"></path><path d="M961.43 455.19L785.24 282.62 601.67 102.81l-0.22-0.21q-1.14-1.12-2.31-2.2l-1-0.92c-0.52-0.47-1-0.95-1.56-1.41l-1.16-1c-0.49-0.42-1-0.85-1.46-1.26l-1.26-1-1.4-1.14-1.33-1-1.37-1.06-1.37-1-1.37-1-1.42-1-1.36-1-1.47-1-1.35-0.89-1.51-0.95-1.35-0.85-1.55-0.92-1.37-0.81-1.55-0.87-1.37-0.77-1.56-0.86-1.4-0.69-1.59-0.8-1.39-0.69-1.62-0.79-1.41-0.65-1.59-0.72-1.42-0.62-1.64-0.67-1.43-0.58-1.64-0.63-1.45-0.55-1.65-0.59-1.46-0.51-1.66-0.55-1.48-0.48-1.66-0.5-1.51-0.44-1.67-0.46-1.51-0.41-1.66-0.42-1.53-0.37-1.63-0.38-1.54-0.34-1.66-0.34-1.56-0.3-1.66-0.29-1.58-0.27-1.65-0.25-1.59-0.23-1.69-0.17-1.6-0.19-1.65-0.17-1.62-0.16-1.64-0.13-1.56-0.18-1.64-0.1-1.67-0.07-1.64-0.06H501.84l-1.71 0.06-1.6 0.07-1.71 0.1-1.6 0.11-1.7 0.14-1.6 0.15-1.69 0.18-1.61 0.19-1.68 0.22-1.61 0.23-1.67 0.26-1.61 0.27-1.64 0.3-1.62 0.31-1.63 0.34-1.62 0.35-1.62 0.38-1.62 0.4-1.61 0.42-1.61 0.43-1.59 0.45-1.61 0.47-1.57 0.49-1.61 0.51-1.55 0.53-1.61 0.56-1.54 0.56-1.6 0.6-1.52 0.6-1.59 0.64-1.5 0.64-1.58 0.68-1.49 0.68-1.57 0.72-1.48 0.72-1.55 0.76-1.47 0.75-1.54 0.8-1.45 0.79-1.52 0.84-1.45 0.84-1.48 0.87-1.44 0.88-1.46 0.91-1.42 0.93-1.44 0.94L428 88l-1.4 1-1.42 1-1.37 1-1.41 1-1.34 1-1.4 1.13-1.3 1-1.45 1.23-1.21 1c-0.5 0.44-1 0.89-1.5 1.34l-1.11 1c-0.54 0.5-1.08 1-1.61 1.52l-1 0.9c-0.73 0.7-1.45 1.42-2.16 2.15l-0.35 0.35L70.84 448.3l-6.27 6.38zM505.83 77.56a122.5 122.5 0 0 1 86.26 35l335.78 328.92-830.7-0.48 320.61-326.67a122.36 122.36 0 0 1 88.05-36.77z" fill="" p-id="4873"></path><path d="M339.16 659a13.69 13.69 0 0 1 13.69-13.76H630.5a13.69 13.69 0 0 1 13.69 13.55l2.45 242h171.83v-445.6H178.33v445.65h162.06z m76.44-142.16a13.69 13.69 0 0 1 18.88 4.27 82.19 82.19 0 0 0 138.24 0 13.69 13.69 0 1 1 23.15 14.61c-20 31.61-54.44 50.48-92.27 50.48s-72.32-18.87-92.27-50.49a13.69 13.69 0 0 1 4.27-18.87z" fill="#3399CC" p-id="4874"></path><path d="M164.64 914.53h189.5L352.85 659H630.5l2.59 255.58h199.07v-473H164.64z m13.69-459.34h640.14v445.65H646.64l-2.45-242a13.69 13.69 0 0 0-13.69-13.55H352.85A13.69 13.69 0 0 0 339.16 659l1.23 241.81H178.33z" fill="" p-id="4875"></path><path d="M503.67 586.15c37.82 0 72.32-18.87 92.27-50.48a13.69 13.69 0 1 0-23.15-14.61 82.19 82.19 0 0 1-138.24 0 13.69 13.69 0 0 0-23.15 14.61c19.95 31.6 54.44 50.48 92.27 50.48z" fill="#FFCC66" p-id="4876"></path></svg>