<?xml version="1.0" standalone="no"?><!DOCTYPE svg PUBLIC "-//W3C//DTD SVG 1.1//EN" "http://www.w3.org/Graphics/SVG/1.1/DTD/svg11.dtd"><svg t="1541763958489" class="icon" style="" viewBox="0 0 1024 1024" version="1.1" xmlns="http://www.w3.org/2000/svg" p-id="3912" xmlns:xlink="http://www.w3.org/1999/xlink" width="200" height="200"><defs><style type="text/css"></style></defs><path d="M769.2 511.7c0-141.4-114.7-256.1-256.1-256.1-64.7 0-123.8 24-168.9 63.6 106.3 131.3 199.9 267.4 217.1 444 118.4-22.6 207.9-126.6 207.9-251.5z" fill="#FFDE55" p-id="3913"></path><path d="M513.1 780.3c-71.7 0-139.2-27.9-189.9-78.7-50.7-50.7-78.7-118.2-78.7-189.9s27.9-139.2 78.7-189.9c50.7-50.7 118.2-78.7 189.9-78.7S652.3 271 703 321.8c50.7 50.7 78.7 118.2 78.7 189.9S753.8 650.9 703 701.6c-50.7 50.8-118.2 78.7-189.9 78.7z m0-512.2c-134.3 0-243.6 109.3-243.6 243.6s109.3 243.6 243.6 243.6S756.7 646 756.7 511.7 647.4 268.1 513.1 268.1z" fill="" p-id="3914"></path><path d="M609.4 620.5c-3.2 0-6.4-1.2-8.8-3.7L503 519.2V363.7c0-6.9 5.6-12.5 12.5-12.5s12.5 5.6 12.5 12.5v145.2l90.3 90.3c4.9 4.9 4.9 12.8 0 17.7-2.5 2.4-5.7 3.6-8.9 3.6z" fill="" p-id="3915"></path></svg>