<?xml version="1.0" standalone="no"?><!DOCTYPE svg PUBLIC "-//W3C//DTD SVG 1.1//EN" "http://www.w3.org/Graphics/SVG/1.1/DTD/svg11.dtd"><svg t="1541763884057" class="icon" style="" viewBox="0 0 1024 1024" version="1.1" xmlns="http://www.w3.org/2000/svg" p-id="2163" xmlns:xlink="http://www.w3.org/1999/xlink" width="200" height="200"><defs><style type="text/css"></style></defs><path d="M712 298.9c-4.3 48.3-25.6 91.7-58 124.1-36.3 36.3-86.6 58.8-142 58.8-55.5 0-105.7-22.5-142.1-58.8-32.4-32.4-53.8-75.8-58.1-124.1h-75.7c-8.2 0-15.7 3.4-21.2 8.8s-8.8 12.9-8.8 21.1v500.8c0 8.2 3.4 15.7 8.8 21.2s12.9 8.8 21.2 8.8h551.7c8.2 0 15.7-3.4 21.1-8.8 5.5-5.5 8.8-12.9 8.8-21.2V328.8c0-8.2-3.4-15.7-8.8-21.1-5.4-5.5-12.9-8.8-21.1-8.8H712zM594.7 198.2c21.2 21.2 34.3 50.4 34.3 82.7 0 32.3-13.1 61.5-34.3 82.7-21.1 21.1-50.4 34.2-82.7 34.2-32.3 0-61.6-13.1-82.7-34.2-21.2-21.2-34.2-50.4-34.2-82.7 0-32.3 13.1-61.5 34.2-82.7 21.1-21.1 50.4-34.2 82.7-34.2 32.3 0 61.5 13.1 82.7 34.2zM360.1 298.9c4.1 35 20.1 66.4 43.7 90.1 27.7 27.7 65.9 44.8 108.2 44.8 42.2 0 80.5-17.1 108.1-44.8 23.7-23.7 39.6-55.1 43.8-90.1h24.2c-4.2 41.6-22.9 79-51 107.1-32 32-76.2 51.8-125.1 51.8-48.9 0-93.1-19.8-125.1-51.8-28-28-46.7-65.4-50.9-107.1h24.1z m-124-36h124c4.1-35 20-66.4 43.7-90.1C431.5 145.1 469.7 128 512 128c42.2 0 80.5 17.1 108.1 44.8 23.7 23.7 39.6 55.1 43.8 90.1h124c18.1 0 34.6 7.4 46.6 19.4 11.9 12 19.4 28.5 19.4 46.6v500.8c0 18.2-7.4 34.7-19.4 46.6-12 12-28.5 19.4-46.6 19.4H236.1c-18.2 0-34.7-7.4-46.6-19.4-11.9-11.9-19.3-28.4-19.3-46.6V328.9c0-18.1 7.4-34.6 19.3-46.6 12-11.9 28.5-19.4 46.6-19.4z" fill="#F08D2C" p-id="2164"></path><path d="M700.9 484.6c18.6 5.5 3.3 42.3-18.8 38-15.8-3-12.1-47.2 18.8-38z m24.8 25.6c-24.3-7.2-27.2 27.6-14.8 29.9 17.4 3.4 29.4-25.6 14.8-29.9z m20.7 23.9c12.8 3.8 2.2 29-12.9 26.1-10.8-2.1-8.3-32.4 12.9-26.1z m11.8 27.5c-18.1-5.4-20.2 20.5-11 22.3 13 2.5 22-19 11-22.3z m-96.7-97c-40.2-11.9-47.3 48.1-26.9 52 28.7 5.5 51.1-44.8 26.9-52z m-338.4 20c-18.6 5.5-3.3 42.3 18.8 38 15.7-3 12.1-47.2-18.8-38z m-24.8 25.6c24.3-7.2 27.2 27.6 14.8 29.9-17.4 3.4-29.5-25.6-14.8-29.9z m-20.8 23.9c-12.7 3.8-2.2 29 12.9 26.1 10.8-2.1 8.3-32.4-12.9-26.1z m-11.7 27.5c18.1-5.4 20.2 20.5 11 22.3-13 2.5-22-19-11-22.3z m96.7-97c40.2-11.9 47.3 48.1 26.9 52-28.7 5.5-51.1-44.8-26.9-52z m11.3 59.8c33.1-3.2 51.2 21.2 48.3 57.9-2.4 30.5-16.2 52.3-11.7 82.6 6 40.3 45.7 70.6 43.1 126-1.7 36.9-42.2 49.9-66.8 33.1-27.3-18.5-36.8-64.8-53-102.5-10.2-23.7-25.3-45.4-36.5-62.9-18.3-28.4-25.6-60.3 2.7-91.9 21.6-24 46.6-39.7 73.9-42.3zM512 269l33.3-57.6c3.3-5.7 10.6-7.7 16.4-4.3 5.7 3.3 7.7 10.6 4.3 16.3L532.8 281c2 3.5 3.2 7.6 3.2 12 0 13.2-10.8 24-24 24-13.3 0-24-10.8-24-24 0-13.3 10.7-24 24-24z m138.2 255.4c-33.1-3.2-51.2 21.2-48.3 57.9 2.4 30.5 16.2 52.3 11.7 82.6-6 40.3-45.7 70.6-43.1 126 1.7 36.9 42.2 49.9 66.8 33.1 27.3-18.5 36.8-64.8 53-102.5 10.2-23.7 25.3-45.4 36.5-62.9 18.3-28.4 25.6-60.3-2.6-91.9-21.8-24-46.7-39.7-74-42.3z" fill="#F08D2C" p-id="2165"></path></svg>